<svg xmlns="http://www.w3.org/2000/svg" viewBox="0 0 328 648" role="img" aria-labelledby="title desc">
  <title id="title">男性正面卡通穴位底图</title>
  <desc id="desc">男性、穿T恤与短裤的卡通医学示意图，用于穴位热点对齐。</desc>
  <defs>
    <linearGradient id="skinFront" x1="0" y1="0" x2="0" y2="1">
      <stop offset="0%" stop-color="#ffe4d8"/>
      <stop offset="100%" stop-color="#ffd2c0"/>
    </linearGradient>
    <linearGradient id="shirtFront" x1="0" y1="0" x2="0" y2="1">
      <stop offset="0%" stop-color="#a9b7dd"/>
      <stop offset="100%" stop-color="#8e9fcd"/>
    </linearGradient>
    <linearGradient id="shortsFront" x1="0" y1="0" x2="0" y2="1">
      <stop offset="0%" stop-color="#98a9d8"/>
      <stop offset="100%" stop-color="#8095c8"/>
    </linearGradient>
    <style>
      .outline { stroke: #6e78b0; stroke-width: 2.8; stroke-linecap: round; stroke-linejoin: round; }
      .soft { stroke: #ef9ca2; stroke-width: 1.15; opacity: 0.45; fill: none; stroke-linecap: round; }
      .dot { fill: #ef7f97; opacity: 0.9; }
      .mark { fill: #d6796c; fill-opacity: 0.18; stroke: #bb6559; stroke-width: 1; }
    </style>
  </defs>

  <rect width="328" height="648" fill="#ffffff"/>

  <g>
    <path d="M128 80C132 54 148 43 164 43C180 43 196 54 200 80C195 72 187 67 180 63C174 60 169 58 164 58C159 58 154 60 148 63C141 67 133 72 128 80Z" fill="#5968b2"/>
    <circle cx="164" cy="93" r="34" fill="url(#skinFront)" class="outline"/>
    <path d="M132 87C139 69 150 61 164 61C178 61 189 69 196 87" fill="none" class="outline"/>
    <path d="M151 89C153 86 156 84 160 84" class="outline" stroke-width="2.1"/>
    <path d="M168 84C172 84 175 86 177 89" class="outline" stroke-width="2.1"/>
    <circle cx="155" cy="93" r="2.6" fill="#475187"/>
    <circle cx="173" cy="93" r="2.6" fill="#475187"/>
    <path d="M161 97C162 101 162 104 161 108" class="soft"/>
    <path d="M154 112C159 115 169 115 174 112" class="outline" stroke="#ef8da1" stroke-width="1.8"/>
    <circle cx="145" cy="103" r="4.2" fill="#ffb6c4" opacity="0.7"/>
    <circle cx="183" cy="103" r="4.2" fill="#ffb6c4" opacity="0.7"/>
    <path d="M152 125H176L179 144H149Z" fill="url(#skinFront)" class="outline"/>

    <path d="M126 150C137 141 149 137 164 137C179 137 191 141 202 150L212 171C201 179 188 182 164 182C140 182 127 179 116 171Z" fill="url(#shirtFront)" class="outline"/>
    <path d="M116 171C107 186 102 211 100 252C98 292 102 336 108 385C112 415 115 456 117 509C118 543 126 577 143 603C149 612 156 617 164 617C172 617 179 612 185 603C202 577 210 543 211 509C213 456 216 415 220 385C226 336 230 292 228 252C226 211 221 186 212 171" fill="url(#skinFront)" class="outline"/>

    <path d="M122 188C136 184 149 182 164 182C179 182 192 184 206 188V262H122Z" fill="url(#shirtFront)" class="outline"/>
    <path d="M147 181C151 189 156 193 164 193C172 193 177 189 181 181" fill="none" class="outline" stroke-width="2.1"/>
    <path d="M129 189C123 198 118 205 111 208" fill="none" class="outline"/>
    <path d="M199 189C205 198 210 205 217 208" fill="none" class="outline"/>
    <path d="M138 222C146 219 154 218 164 218C174 218 182 219 190 222" class="soft"/>

    <path d="M118 261C132 255 146 252 164 252C182 252 196 255 210 261V347H118Z" fill="url(#shortsFront)" class="outline"/>
    <path d="M153 260V347" class="outline" stroke-width="2"/>
    <path d="M175 260V347" class="outline" stroke-width="2"/>
    <path d="M162 289C164 292 164 297 162 302" class="soft"/>

    <path d="M117 156C103 171 89 204 82 247C75 286 74 325 80 354C82 364 90 368 97 366C104 364 109 357 108 349C104 313 106 274 112 236C116 208 123 184 133 165" fill="url(#skinFront)" class="outline"/>
    <path d="M211 156C225 171 239 204 246 247C253 286 254 325 248 354C246 364 238 368 231 366C224 364 219 357 220 349C224 313 222 274 216 236C212 208 205 184 195 165" fill="url(#skinFront)" class="outline"/>
    <path d="M83 348C87 340 95 337 101 339C106 341 108 347 107 354C106 361 99 368 92 368C86 368 82 360 83 348Z" fill="url(#skinFront)" class="outline"/>
    <path d="M245 348C241 340 233 337 227 339C222 341 220 347 221 354C222 361 229 368 236 368C242 368 246 360 245 348Z" fill="url(#skinFront)" class="outline"/>

    <path d="M130 346C121 378 119 419 122 457C125 492 130 526 134 559C136 577 137 593 137 607C137 620 126 628 116 624C105 620 100 609 101 595C106 543 107 498 108 454C110 410 115 374 130 346Z" fill="url(#skinFront)" class="outline"/>
    <path d="M198 346C207 378 209 419 206 457C203 492 198 526 194 559C192 577 191 593 191 607C191 620 202 628 212 624C223 620 228 609 227 595C222 543 221 498 220 454C218 410 213 374 198 346Z" fill="url(#skinFront)" class="outline"/>
    <path d="M137 608C142 620 150 626 164 626C178 626 186 620 191 608" class="soft"/>
  </g>

  <g>
    <circle class="dot" cx="164" cy="41" r="3.2"/>
    <circle class="dot" cx="164" cy="79" r="3.2"/>
    <circle class="dot" cx="136" cy="86" r="3.2"/>
    <circle class="dot" cx="192" cy="86" r="3.2"/>
    <circle class="dot" cx="164" cy="176" r="3.2"/>
    <circle class="dot" cx="95" cy="353" r="3.2"/>
    <circle class="dot" cx="228" cy="301" r="3.2"/>
    <circle class="dot" cx="164" cy="249" r="3.2"/>
    <circle class="dot" cx="192" cy="274" r="3.2"/>
    <circle class="dot" cx="100" cy="242" r="3.2"/>
    <circle class="dot" cx="164" cy="306" r="3.2"/>
    <circle class="dot" cx="164" cy="342" r="3.2"/>
    <circle class="dot" cx="139" cy="469" r="3.2"/>
    <circle class="dot" cx="188" cy="510" r="3.2"/>
    <circle class="dot" cx="138" cy="583" r="3.2"/>
    <circle class="dot" cx="191" cy="594" r="3.2"/>
    <circle class="dot" cx="108" cy="327" r="3.2"/>
  </g>

  <g opacity="0.001">
    <circle class="mark" cx="164" cy="41" r="5"/>
    <circle class="mark" cx="164" cy="79" r="4.5"/>
    <circle class="mark" cx="136" cy="86" r="4.5"/>
    <circle class="mark" cx="192" cy="86" r="4.5"/>
    <circle class="mark" cx="164" cy="176" r="5"/>
    <circle class="mark" cx="95" cy="353" r="5"/>
    <circle class="mark" cx="228" cy="301" r="5"/>
    <circle class="mark" cx="164" cy="249" r="5"/>
    <circle class="mark" cx="192" cy="274" r="5"/>
    <circle class="mark" cx="100" cy="242" r="5"/>
    <circle class="mark" cx="164" cy="306" r="5"/>
    <circle class="mark" cx="164" cy="342" r="5"/>
    <circle class="mark" cx="139" cy="469" r="5"/>
    <circle class="mark" cx="188" cy="510" r="5"/>
    <circle class="mark" cx="138" cy="583" r="5"/>
    <circle class="mark" cx="191" cy="594" r="5"/>
    <circle class="mark" cx="108" cy="327" r="5"/>
  </g>
</svg>
