<?xml version="1.0" standalone="no"?><!DOCTYPE svg PUBLIC "-//W3C//DTD SVG 1.1//EN" "http://www.w3.org/Graphics/SVG/1.1/DTD/svg11.dtd"><svg t="1780244243101" class="icon" viewBox="0 0 1024 1024" version="1.1" xmlns="http://www.w3.org/2000/svg" p-id="7919" xmlns:xlink="http://www.w3.org/1999/xlink" width="200" height="200"><path d="M786.251294 719.631059l159.021177 156.069647a41.562353 41.562353 0 0 1 1.445647 57.283765 38.189176 38.189176 0 0 1-55.235765 1.505882l-159.262118-156.370824a398.396235 398.396235 0 0 1-265.276235 101.074824 400.384 400.384 0 1 1 0-800.768 400.323765 400.323765 0 0 1 400.384 400.384 398.095059 398.095059 0 0 1-81.076706 240.820706zM137.336471 478.810353a329.728 329.728 0 1 0 659.395764 0 329.728 329.728 0 0 0-659.395764 0z" fill="#AEAEAE" p-id="7920"></path></svg>